<svg xmlns="http://www.w3.org/2000/svg" height="90" width="90"><g><path fill="none" color="#000" enable-background="accumulate" d="M0 0h90v90H0z"/><g><path d="M33 13.012C8.994 13.042 6 13.747 6 31v36c0 18 3 18 30 18h12c27 0 30 0 30-18v-9h-9v6c0 12 0 12-24 12h-6c-24 0-24 0-24-12V34c0-10.864.192-11.885 18-11.982v-9.006z" fill="#fff"/><path fill="none" color="#000" enable-background="accumulate" d="M0 0h90v90H0z"/><path xml:space="default" fill="#fff" d="M41.82 17.782c.628-2.514 40.01-12.362 41.896-10.477C85.6 9.19 75.752 48.573 73.24 49.202c-2.515.628-32.05-28.906-31.422-31.42z" color="#000" enable-background="accumulate"/><path style="block-progression:tb;text-indent:0;text-transform:none" d="M56.43 24.64L32.09 48.98l9.94 9.94 24.34-24.34z" xml:space="default" fill="#fff" color="#000" enable-background="accumulate"/></g></g></svg>